<svg id="visual" viewBox="0 0 900 600" width="900" height="600" xmlns="http://www.w3.org/2000/svg" xmlns:xlink="http://www.w3.org/1999/xlink" version="1.1"><rect x="0" y="0" width="900" height="600" fill="#f9fbfa"></rect><path d="M0 368L21.5 378.5C43 389 86 410 128.8 409.2C171.7 408.3 214.3 385.7 257.2 385.7C300 385.7 343 408.3 385.8 407.7C428.7 407 471.3 383 514.2 378.2C557 373.3 600 387.7 642.8 400.2C685.7 412.7 728.3 423.3 771.2 423.3C814 423.3 857 412.7 878.5 407.3L900 402L900 601L878.5 601C857 601 814 601 771.2 601C728.3 601 685.7 601 642.8 601C600 601 557 601 514.2 601C471.3 601 428.7 601 385.8 601C343 601 300 601 257.2 601C214.3 601 171.7 601 128.8 601C86 601 43 601 21.5 601L0 601Z" fill="#5d9c99"></path><path d="M0 435L21.5 442C43 449 86 463 128.8 467.5C171.7 472 214.3 467 257.2 459.7C300 452.3 343 442.7 385.8 439.5C428.7 436.3 471.3 439.7 514.2 434C557 428.3 600 413.7 642.8 405.8C685.7 398 728.3 397 771.2 397.5C814 398 857 400 878.5 401L900 402L900 601L878.5 601C857 601 814 601 771.2 601C728.3 601 685.7 601 642.8 601C600 601 557 601 514.2 601C471.3 601 428.7 601 385.8 601C343 601 300 601 257.2 601C214.3 601 171.7 601 128.8 601C86 601 43 601 21.5 601L0 601Z" fill="#6fa8a9"></path><path d="M0 441L21.5 448.2C43 455.3 86 469.7 128.8 471.3C171.7 473 214.3 462 257.2 456.7C300 451.3 343 451.7 385.8 452C428.7 452.3 471.3 452.7 514.2 451C557 449.3 600 445.7 642.8 450.7C685.7 455.7 728.3 469.3 771.2 476.3C814 483.3 857 483.7 878.5 483.8L900 484L900 601L878.5 601C857 601 814 601 771.2 601C728.3 601 685.7 601 642.8 601C600 601 557 601 514.2 601C471.3 601 428.7 601 385.8 601C343 601 300 601 257.2 601C214.3 601 171.7 601 128.8 601C86 601 43 601 21.5 601L0 601Z" fill="#82b3b8"></path><path d="M0 496L21.5 494.3C43 492.7 86 489.3 128.8 490C171.7 490.7 214.3 495.3 257.2 497.5C300 499.7 343 499.3 385.8 501.2C428.7 503 471.3 507 514.2 504.8C557 502.7 600 494.3 642.8 498.5C685.7 502.7 728.3 519.3 771.2 518.3C814 517.3 857 498.7 878.5 489.3L900 480L900 601L878.5 601C857 601 814 601 771.2 601C728.3 601 685.7 601 642.8 601C600 601 557 601 514.2 601C471.3 601 428.7 601 385.8 601C343 601 300 601 257.2 601C214.3 601 171.7 601 128.8 601C86 601 43 601 21.5 601L0 601Z" fill="#96bec6"></path><path d="M0 553L21.5 549C43 545 86 537 128.8 533.5C171.7 530 214.3 531 257.2 535.8C300 540.7 343 549.3 385.8 548.3C428.7 547.3 471.3 536.7 514.2 536.2C557 535.7 600 545.3 642.8 546.5C685.7 547.7 728.3 540.3 771.2 543.3C814 546.3 857 559.7 878.5 566.3L900 573L900 601L878.5 601C857 601 814 601 771.2 601C728.3 601 685.7 601 642.8 601C600 601 557 601 514.2 601C471.3 601 428.7 601 385.8 601C343 601 300 601 257.2 601C214.3 601 171.7 601 128.8 601C86 601 43 601 21.5 601L0 601Z" fill="#aacad3"></path></svg>